<svg height="512" viewBox="0 0 64 64" width="512" xmlns="http://www.w3.org/2000/svg"><g id="outline"><path d="m6 23a1 1 0 0 0 -1 1v4a1 1 0 0 0 1 1h2v23h-1a1 1 0 0 0 -1 1v4a1 1 0 0 0 1 1h5v3a1 1 0 0 0 1 1h12a1 1 0 0 0 1-1v-3h12v3a1 1 0 0 0 1 1h12a1 1 0 0 0 1-1v-3h5a1 1 0 0 0 1-1v-4a1 1 0 0 0 -1-1h-1v-23h2a1 1 0 0 0 1-1v-4a1 1 0 0 0 -1-1h-7v-2h4v-2h-2v-3a1 1 0 0 0 -1-1h-1v-2h4v-2h-2v-3a1 1 0 0 0 -1-1h-1v-4a1 1 0 0 0 -1-1h-4a1 1 0 0 0 -1 1v4h-1a1 1 0 0 0 -1 1v3h-2v2h4v2h-1a1 1 0 0 0 -1 1v3h-2v2h4v2h-10v-2h4v-2h-2v-3a1 1 0 0 0 -1-1h-1v-2h4v-2h-2v-3a1 1 0 0 0 -1-1h-1v-4a1 1 0 0 0 -1-1h-4a1 1 0 0 0 -1 1v4h-1a1 1 0 0 0 -1 1v3h-2v2h4v2h-1a1 1 0 0 0 -1 1v3h-2v2h4v2h-10v-2h4v-2h-2v-3a1 1 0 0 0 -1-1h-1v-2h4v-2h-2v-3a1 1 0 0 0 -1-1h-1v-4a1 1 0 0 0 -1-1h-4a1 1 0 0 0 -1 1v4h-1a1 1 0 0 0 -1 1v3h-2v2h4v2h-1a1 1 0 0 0 -1 1v3h-2v2h4v2zm18 37h-10v-2h10zm26 0h-10v-2h10zm6-4h-48v-2h48zm-46-4v-23h44v23zm37-48h2v3h-2zm-2 5h6v2h-6zm4 4v2h-2v-2zm-4 4h6v2h-6zm4 4v2h-2v-2zm-18-17h2v3h-2zm-2 5h6v2h-6zm4 4v2h-2v-2zm-4 4h6v2h-6zm4 4v2h-2v-2zm-18-17h2v3h-2zm-2 5h6v2h-6zm4 4v2h-2v-2zm-4 4h6v2h-6zm4 4v2h-2v-2zm40 4v2h-50v-2z"/><path d="m43 31h-22a1 1 0 0 0 -1 1v17a1 1 0 0 0 1 1h22a1 1 0 0 0 1-1v-17a1 1 0 0 0 -1-1zm-1 17h-20v-15h20z"/><path d="m25.1 42.424a1 1 0 0 0 .9.576h4v3a1 1 0 0 0 1.65.759l7-6a1 1 0 0 0 -.65-1.759h-3l1.8-2.4a1 1 0 0 0 -.8-1.6h-5a1 1 0 0 0 -.769.359l-5 6a1 1 0 0 0 -.131 1.065zm6.369-5.424h2.531l-1.8 2.4a1 1 0 0 0 .8 1.6h2.3l-3.3 2.826v-1.826a1 1 0 0 0 -1-1h-2.865z"/><path d="m24 35h2v2h-2z"/><path d="m38 44h2v2h-2z"/><path d="m12 31h2v19h-2z"/><path d="m16 31h2v19h-2z"/><path d="m46 31h2v19h-2z"/><path d="m50 31h2v19h-2z"/></g></svg>